<?xml version="1.0" standalone="no"?><svg xmlns="http://www.w3.org/2000/svg" viewBox="0 0 1440 320"><path fill="#0099ff" fill-opacity="1" d="M0,256L20,229.3C40,203,80,149,120,138.7C160,128,200,160,240,197.3C280,235,320,277,360,288C400,299,440,277,480,261.3C520,245,560,235,600,202.7C640,171,680,117,720,122.7C760,128,800,192,840,202.7C880,213,920,171,960,170.7C1000,171,1040,213,1080,202.7C1120,192,1160,128,1200,128C1240,128,1280,192,1320,229.3C1360,267,1400,277,1420,282.7L1440,288L1440,0L1420,0C1400,0,1360,0,1320,0C1280,0,1240,0,1200,0C1160,0,1120,0,1080,0C1040,0,1000,0,960,0C920,0,880,0,840,0C800,0,760,0,720,0C680,0,640,0,600,0C560,0,520,0,480,0C440,0,400,0,360,0C320,0,280,0,240,0C200,0,160,0,120,0C80,0,40,0,20,0L0,0Z"></path></svg>